<?xml version="1.0" encoding="UTF-8" standalone="no"?>
<!DOCTYPE svg PUBLIC "-//W3C//DTD SVG 1.1//EN"
 "http://www.w3.org/Graphics/SVG/1.1/DTD/svg11.dtd">
<!-- Generated by graphviz version 13.1.2 (20250808.2320)
 -->
<!-- Pages: 1 -->
<svg width="554pt" height="1136pt"
 viewBox="0.00 0.00 554.00 1136.00" xmlns="http://www.w3.org/2000/svg" xmlns:xlink="http://www.w3.org/1999/xlink">
<g id="graph0" class="graph" transform="scale(1 1) rotate(0) translate(4 1132)">
<polygon fill="white" stroke="none" points="-4,4 -4,-1132 549.83,-1132 549.83,4 -4,4"/>
<!-- # asfalt&#45;&gt;asfaltbetons___asfalt -->
<g id="edge1" class="edge">
<title># asfalt&#45;&gt;asfaltbetons___asfalt</title>
<path fill="none" stroke="#cccccc" d="M47.36,-475.32C90.91,-573.79 279.54,-1000.3 320.28,-1092.42"/>
</g>
<!-- # asfalt&#45;&gt;asfaltceļš___asfalt -->
<g id="edge2" class="edge">
<title># asfalt&#45;&gt;asfaltceļš___asfalt</title>
<path fill="none" stroke="#cccccc" d="M49.91,-475.27C97,-558.01 274.26,-869.47 318.17,-946.62"/>
</g>
<!-- # asfalt&#45;&gt;asfaltēšana___asfalt -->
<g id="edge3" class="edge">
<title># asfalt&#45;&gt;asfaltēšana___asfalt</title>
<path fill="none" stroke="#cccccc" d="M76.48,-442.39C162.76,-413.82 372.19,-344.49 457.45,-316.26"/>
</g>
<!-- # asfalt&#45;&gt;asfaltēt___asfalt -->
<g id="edge4" class="edge">
<title># asfalt&#45;&gt;asfaltēt___asfalt</title>
<path fill="none" stroke="#cccccc" d="M76.54,-440.24C135.23,-417.55 246.35,-374.59 299,-354.24"/>
</g>
<!-- # asfalt&#45;&gt;asfaltētājs___asfalt -->
<g id="edge5" class="edge">
<title># asfalt&#45;&gt;asfaltētājs___asfalt</title>
<path fill="none" stroke="#cccccc" d="M76.48,-435.54C165.87,-389.87 387.42,-276.69 466.16,-236.47"/>
</g>
<!-- # asfalt&#45;&gt;asfaltēts___asfalt -->
<g id="edge6" class="edge">
<title># asfalt&#45;&gt;asfaltēts___asfalt</title>
<path fill="none" stroke="#cccccc" d="M66.91,-434.67C151.35,-374.5 398.78,-198.2 473.12,-145.22"/>
</g>
<!-- # asfalt&#45;&gt;asfaltmelns___asfalt -->
<g id="edge7" class="edge">
<title># asfalt&#45;&gt;asfaltmelns___asfalt</title>
<path fill="none" stroke="#cccccc" d="M54.57,-475.35C106.28,-540.33 266.83,-742.07 314.55,-802.03"/>
</g>
<!-- # asfalt&#45;&gt;asfalts___asfalt -->
<g id="edge8" class="edge">
<title># asfalt&#45;&gt;asfalts___asfalt</title>
<path fill="none" stroke="#cccccc" d="M48.62,-475.46C73.29,-530.06 140.34,-678.44 163.15,-728.92"/>
</g>
<!-- # asfalt&#45;&gt;asfaltsegums___asfalt -->
<g id="edge9" class="edge">
<title># asfalt&#45;&gt;asfaltsegums___asfalt</title>
<path fill="none" stroke="#cccccc" d="M65.37,-475.41C122.39,-518.52 254.16,-618.13 306.27,-657.53"/>
</g>
<!-- # asfalt&#45;&gt;lāpāmasfalts___asfalt -->
<g id="edge10" class="edge">
<title># asfalt&#45;&gt;lāpāmasfalts___asfalt</title>
<path fill="none" stroke="#cccccc" d="M76.54,-464.62C130.01,-478.09 226.99,-502.53 283.63,-516.8"/>
</g>
<!-- # asfalt&#45;&gt;neasfaltēt___asfalt -->
<g id="edge11" class="edge">
<title># asfalt&#45;&gt;neasfaltēt___asfalt</title>
<path fill="none" stroke="#cccccc" d="M59.76,-434.51C137.78,-359.76 406.24,-102.55 477.18,-34.58"/>
</g>
<!-- # asfalt&#45;&gt;noasfaltēt___asfalt -->
<g id="edge12" class="edge">
<title># asfalt&#45;&gt;noasfaltēt___asfalt</title>
<path fill="none" stroke="#cccccc" d="M76.48,-448.82C160.83,-435.13 362.9,-402.35 451.55,-387.97"/>
</g>
<!-- # asfalt&#45;&gt;remontasfalts___asfalt -->
<g id="edge13" class="edge">
<title># asfalt&#45;&gt;remontasfalts___asfalt</title>
<path fill="none" stroke="#cccccc" d="M70.48,-434.61C128.52,-397.74 249.76,-320.73 302.57,-287.19"/>
</g>
<!-- asfaltēt___asfalt&#45;&gt;asfaltēšana___asfalt -->
<g id="edge18" class="edge">
<title>asfaltēt___asfalt&#45;&gt;asfaltēšana___asfalt</title>
<path fill="none" stroke="green" d="M361.54,-335.29C384.04,-329.96 414.51,-322.73 440.49,-316.57"/>
<polygon fill="green" stroke="green" points="441.3,-319.98 450.22,-314.26 439.68,-313.16 441.3,-319.98"/>
</g>
<!-- asfaltēt___asfalt&#45;&gt;asfaltētājs___asfalt -->
<g id="edge20" class="edge">
<title>asfaltēt___asfalt&#45;&gt;asfaltētājs___asfalt</title>
<path fill="none" stroke="green" d="M349.22,-328.16C377.63,-307.26 429.68,-268.96 462.87,-244.52"/>
<polygon fill="green" stroke="green" points="464.92,-247.37 470.89,-238.62 460.77,-241.73 464.92,-247.37"/>
</g>
<!-- asfaltēt___asfalt&#45;&gt;asfaltēts___asfalt -->
<g id="edge21" class="edge">
<title>asfaltēt___asfalt&#45;&gt;asfaltēts___asfalt</title>
<path fill="none" stroke="green" d="M341.96,-326.29C370.59,-289.19 439.62,-199.78 473.73,-155.59"/>
<polygon fill="green" stroke="green" points="476.38,-157.89 479.72,-147.83 470.83,-153.61 476.38,-157.89"/>
</g>
<!-- asfaltēt___asfalt&#45;&gt;neasfaltēt___asfalt -->
<g id="edge28" class="edge">
<title>asfaltēt___asfalt&#45;&gt;neasfaltēt___asfalt</title>
<path fill="none" stroke="green" d="M337.67,-325.98C364.52,-272.91 446.9,-110.07 479.75,-45.14"/>
<polygon fill="green" stroke="green" points="482.69,-47.09 484.08,-36.59 476.44,-43.93 482.69,-47.09"/>
</g>
<!-- asfaltēt___asfalt&#45;&gt;noasfaltēt___asfalt -->
<g id="edge29" class="edge">
<title>asfaltēt___asfalt&#45;&gt;noasfaltēt___asfalt</title>
<path fill="none" stroke="green" d="M361.94,-350.6C385.22,-355.98 416.9,-363.3 443.33,-369.41"/>
<polygon fill="green" stroke="green" points="442.29,-372.76 452.82,-371.6 443.86,-365.94 442.29,-372.76"/>
</g>
<!-- asfalts___asfalt&#45;&gt;asfaltbetons___asfalt -->
<g id="edge14" class="edge">
<title>asfalts___asfalt&#45;&gt;asfaltbetons___asfalt</title>
<path fill="none" stroke="blue" d="M180.1,-763.07C204.62,-820.97 284.82,-1010.3 315.23,-1082.07"/>
<polygon fill="blue" stroke="blue" points="311.95,-1083.31 319.07,-1091.15 318.39,-1080.58 311.95,-1083.31"/>
</g>
<!-- asfalts___asfalt&#45;&gt;asfaltceļš___asfalt -->
<g id="edge16" class="edge">
<title>asfalts___asfalt&#45;&gt;asfaltceļš___asfalt</title>
<path fill="none" stroke="blue" d="M184.45,-762.39C210.95,-799.84 276.12,-891.99 308.37,-937.58"/>
<polygon fill="blue" stroke="blue" points="305.4,-939.44 314.03,-945.59 311.12,-935.4 305.4,-939.44"/>
</g>
<!-- asfalts___asfalt&#45;&gt;asfaltēt___asfalt -->
<g id="edge19" class="edge">
<title>asfalts___asfalt&#45;&gt;asfaltēt___asfalt</title>
<path fill="none" stroke="green" d="M179.49,-728.68C203.61,-665.65 286.86,-448.06 316.49,-370.62"/>
<polygon fill="green" stroke="green" points="319.61,-372.26 319.91,-361.67 313.07,-369.75 319.61,-372.26"/>
</g>
<!-- asfalts___asfalt&#45;&gt;asfaltmelns___asfalt -->
<g id="edge22" class="edge">
<title>asfalts___asfalt&#45;&gt;asfaltmelns___asfalt</title>
<path fill="none" stroke="blue" d="M197.64,-757.73C221.49,-769.02 258,-786.31 286.16,-799.64"/>
<polygon fill="blue" stroke="blue" points="284.6,-802.77 295.14,-803.89 287.6,-796.45 284.6,-802.77"/>
</g>
<!-- asfalts___asfalt&#45;&gt;asfaltsegums___asfalt -->
<g id="edge24" class="edge">
<title>asfalts___asfalt&#45;&gt;asfaltsegums___asfalt</title>
<path fill="none" stroke="blue" d="M197.98,-734.27C221.51,-723.28 257.14,-706.65 285.01,-693.63"/>
<polygon fill="blue" stroke="blue" points="286.32,-696.89 293.9,-689.48 283.35,-690.54 286.32,-696.89"/>
</g>
<!-- asfalts___asfalt&#45;&gt;lāpāmasfalts___asfalt -->
<g id="edge27" class="edge">
<title>asfalts___asfalt&#45;&gt;lāpāmasfalts___asfalt</title>
<path fill="none" stroke="blue" d="M184.45,-729.61C210.88,-692.25 275.8,-600.46 308.13,-554.76"/>
<polygon fill="blue" stroke="blue" points="310.9,-556.9 313.82,-546.72 305.19,-552.86 310.9,-556.9"/>
</g>
<!-- asfalts___asfalt&#45;&gt;remontasfalts___asfalt -->
<g id="edge31" class="edge">
<title>asfalts___asfalt&#45;&gt;remontasfalts___asfalt</title>
<path fill="none" stroke="blue" d="M178.54,-728.53C201.65,-657.33 288.88,-388.6 317.73,-299.73"/>
<polygon fill="blue" stroke="blue" points="321.03,-300.91 320.78,-290.32 314.37,-298.75 321.03,-300.91"/>
</g>
<!-- betons&#45;&gt;asfaltbetons___asfalt -->
<g id="edge15" class="edge">
<title>betons&#45;&gt;asfaltbetons___asfalt</title>
<path fill="none" stroke="blue" d="M206.7,-1110C222.93,-1110 242.94,-1110 261.95,-1110"/>
<polygon fill="blue" stroke="blue" points="261.79,-1113.5 271.79,-1110 261.79,-1106.5 261.79,-1113.5"/>
</g>
<!-- ceļš&#45;&gt;asfaltceļš___asfalt -->
<g id="edge17" class="edge">
<title>ceļš&#45;&gt;asfaltceļš___asfalt</title>
<path fill="none" stroke="blue" d="M198.67,-964C218.6,-964 246.89,-964 271.84,-964"/>
<polygon fill="blue" stroke="blue" points="271.52,-967.5 281.52,-964 271.52,-960.5 271.52,-967.5"/>
</g>
<!-- melns&#45;&gt;asfaltmelns___asfalt -->
<g id="edge23" class="edge">
<title>melns&#45;&gt;asfaltmelns___asfalt</title>
<path fill="none" stroke="blue" d="M197.3,-880.43C221.17,-869.13 257.94,-851.72 286.25,-838.32"/>
<polygon fill="blue" stroke="blue" points="287.73,-841.49 295.27,-834.05 284.74,-835.16 287.73,-841.49"/>
</g>
<!-- segums&#45;&gt;asfaltsegums___asfalt -->
<g id="edge25" class="edge">
<title>segums&#45;&gt;asfaltsegums___asfalt</title>
<path fill="none" stroke="blue" d="M210.58,-674C224.93,-674 241.76,-674 258.09,-674"/>
<polygon fill="blue" stroke="blue" points="257.77,-677.5 267.77,-674 257.77,-670.5 257.77,-677.5"/>
</g>
<!-- lāpāms&#45;&gt;lāpāmasfalts___asfalt -->
<g id="edge26" class="edge">
<title>lāpāms&#45;&gt;lāpāmasfalts___asfalt</title>
<path fill="none" stroke="blue" d="M209.02,-528C224.06,-528 242.03,-528 259.36,-528"/>
<polygon fill="blue" stroke="blue" points="259.1,-531.5 269.1,-528 259.1,-524.5 259.1,-531.5"/>
</g>
<!-- remonts&#45;&gt;remontasfalts___asfalt -->
<g id="edge30" class="edge">
<title>remonts&#45;&gt;remontasfalts___asfalt</title>
<path fill="none" stroke="blue" d="M207.85,-299.6C226.08,-295.23 248.84,-289.77 269.57,-284.8"/>
<polygon fill="blue" stroke="blue" points="270.13,-288.26 279.04,-282.52 268.5,-281.45 270.13,-288.26"/>
</g>
<!-- # asfalt -->
<g id="node1" class="node">
<title># asfalt</title>
<polygon fill="lightblue" stroke="black" stroke-width="0" points="76.75,-475.5 0,-475.5 0,-434.5 76.75,-434.5 76.75,-475.5"/>
<text xml:space="preserve" text-anchor="middle" x="38.38" y="-458.2" font-family="Times New Roman,serif" font-size="14.00">asfalt</text>
<text xml:space="preserve" text-anchor="middle" x="38.38" y="-441.7" font-family="Times New Roman,serif" font-size="14.00">(borrowed)</text>
</g>
<!-- asfaltbetons___asfalt -->
<g id="node2" class="node">
<title>asfaltbetons___asfalt</title>
<ellipse fill="white" stroke="black" stroke-width="0" cx="328.06" cy="-1110" rx="54.93" ry="18"/>
<text xml:space="preserve" text-anchor="middle" x="328.06" y="-1104.95" font-family="Times New Roman,serif" font-size="14.00">asfaltbetons</text>
</g>
<!-- asfaltceļš___asfalt -->
<g id="node3" class="node">
<title>asfaltceļš___asfalt</title>
<ellipse fill="white" stroke="black" stroke-width="0" cx="328.06" cy="-964" rx="45.21" ry="18"/>
<text xml:space="preserve" text-anchor="middle" x="328.06" y="-958.95" font-family="Times New Roman,serif" font-size="14.00">asfaltceļš</text>
</g>
<!-- asfaltēšana___asfalt -->
<g id="node4" class="node">
<title>asfaltēšana___asfalt</title>
<ellipse fill="white" stroke="black" stroke-width="0" cx="494.48" cy="-304" rx="51.35" ry="18"/>
<text xml:space="preserve" text-anchor="middle" x="494.48" y="-298.95" font-family="Times New Roman,serif" font-size="14.00">asfaltēšana</text>
</g>
<!-- asfaltēt___asfalt -->
<g id="node5" class="node">
<title>asfaltēt___asfalt</title>
<ellipse fill="white" stroke="black" stroke-width="0" cx="328.06" cy="-343" rx="37.53" ry="18"/>
<text xml:space="preserve" text-anchor="middle" x="328.06" y="-337.95" font-family="Times New Roman,serif" font-size="14.00">asfaltēt</text>
</g>
<!-- asfaltētājs___asfalt -->
<g id="node6" class="node">
<title>asfaltētājs___asfalt</title>
<ellipse fill="white" stroke="black" stroke-width="0" cx="494.48" cy="-222" rx="47.77" ry="18"/>
<text xml:space="preserve" text-anchor="middle" x="494.48" y="-216.95" font-family="Times New Roman,serif" font-size="14.00">asfaltētājs</text>
</g>
<!-- asfaltēts___asfalt -->
<g id="node7" class="node">
<title>asfaltēts___asfalt</title>
<ellipse fill="white" stroke="black" stroke-width="0" cx="494.48" cy="-130" rx="41.12" ry="18"/>
<text xml:space="preserve" text-anchor="middle" x="494.48" y="-124.95" font-family="Times New Roman,serif" font-size="14.00">asfaltēts</text>
</g>
<!-- asfaltmelns___asfalt -->
<g id="node8" class="node">
<title>asfaltmelns___asfalt</title>
<ellipse fill="white" stroke="black" stroke-width="0" cx="328.06" cy="-819" rx="53.4" ry="18"/>
<text xml:space="preserve" text-anchor="middle" x="328.06" y="-813.95" font-family="Times New Roman,serif" font-size="14.00">asfaltmelns</text>
</g>
<!-- asfalts___asfalt -->
<g id="node9" class="node">
<title>asfalts___asfalt</title>
<ellipse fill="white" stroke="black" stroke-width="0" cx="171.87" cy="-746" rx="34.46" ry="18"/>
<text xml:space="preserve" text-anchor="middle" x="171.87" y="-740.95" font-family="Times New Roman,serif" font-size="14.00">asfalts</text>
</g>
<!-- asfaltsegums___asfalt -->
<g id="node10" class="node">
<title>asfaltsegums___asfalt</title>
<ellipse fill="white" stroke="black" stroke-width="0" cx="328.06" cy="-674" rx="59.03" ry="18"/>
<text xml:space="preserve" text-anchor="middle" x="328.06" y="-668.95" font-family="Times New Roman,serif" font-size="14.00">asfaltsegums</text>
</g>
<!-- lāpāmasfalts___asfalt -->
<g id="node11" class="node">
<title>lāpāmasfalts___asfalt</title>
<ellipse fill="white" stroke="black" stroke-width="0" cx="328.06" cy="-528" rx="57.49" ry="18"/>
<text xml:space="preserve" text-anchor="middle" x="328.06" y="-522.95" font-family="Times New Roman,serif" font-size="14.00">lāpāmasfalts</text>
</g>
<!-- neasfaltēt___asfalt -->
<g id="node12" class="node">
<title>neasfaltēt___asfalt</title>
<ellipse fill="white" stroke="black" stroke-width="0" cx="494.48" cy="-18" rx="46.23" ry="18"/>
<text xml:space="preserve" text-anchor="middle" x="494.48" y="-12.95" font-family="Times New Roman,serif" font-size="14.00">neasfaltēt</text>
</g>
<!-- noasfaltēt___asfalt -->
<g id="node13" class="node">
<title>noasfaltēt___asfalt</title>
<ellipse fill="white" stroke="black" stroke-width="0" cx="494.48" cy="-381" rx="46.75" ry="18"/>
<text xml:space="preserve" text-anchor="middle" x="494.48" y="-375.95" font-family="Times New Roman,serif" font-size="14.00">noasfaltēt</text>
</g>
<!-- remontasfalts___asfalt -->
<g id="node14" class="node">
<title>remontasfalts___asfalt</title>
<ellipse fill="white" stroke="black" stroke-width="0" cx="328.06" cy="-271" rx="61.08" ry="18"/>
<text xml:space="preserve" text-anchor="middle" x="328.06" y="-265.95" font-family="Times New Roman,serif" font-size="14.00">remontasfalts</text>
</g>
<!-- betons -->
<g id="node15" class="node">
<title>betons</title>
<ellipse fill="white" stroke="black" stroke-width="0" cx="171.87" cy="-1110" rx="34.97" ry="18"/>
<text xml:space="preserve" text-anchor="middle" x="171.87" y="-1104.95" font-family="Times New Roman,serif" font-size="14.00" fill="gray">betons</text>
</g>
<!-- ceļš -->
<g id="node16" class="node">
<title>ceļš</title>
<ellipse fill="white" stroke="black" stroke-width="0" cx="171.87" cy="-964" rx="27" ry="18"/>
<text xml:space="preserve" text-anchor="middle" x="171.87" y="-958.95" font-family="Times New Roman,serif" font-size="14.00" fill="gray">ceļš</text>
</g>
<!-- melns -->
<g id="node17" class="node">
<title>melns</title>
<ellipse fill="white" stroke="black" stroke-width="0" cx="171.87" cy="-892" rx="33.44" ry="18"/>
<text xml:space="preserve" text-anchor="middle" x="171.87" y="-886.95" font-family="Times New Roman,serif" font-size="14.00" fill="gray">melns</text>
</g>
<!-- segums -->
<g id="node18" class="node">
<title>segums</title>
<ellipse fill="white" stroke="black" stroke-width="0" cx="171.87" cy="-674" rx="39.07" ry="18"/>
<text xml:space="preserve" text-anchor="middle" x="171.87" y="-668.95" font-family="Times New Roman,serif" font-size="14.00" fill="gray">segums</text>
</g>
<!-- lāpāms -->
<g id="node19" class="node">
<title>lāpāms</title>
<ellipse fill="white" stroke="black" stroke-width="0" cx="171.87" cy="-528" rx="37.53" ry="18"/>
<text xml:space="preserve" text-anchor="middle" x="171.87" y="-522.95" font-family="Times New Roman,serif" font-size="14.00" fill="gray">lāpāms</text>
</g>
<!-- remonts -->
<g id="node20" class="node">
<title>remonts</title>
<ellipse fill="white" stroke="black" stroke-width="0" cx="171.87" cy="-308" rx="41.12" ry="18"/>
<text xml:space="preserve" text-anchor="middle" x="171.87" y="-302.95" font-family="Times New Roman,serif" font-size="14.00" fill="gray">remonts</text>
</g>
</g>
</svg>
