<?xml version="1.0" encoding="UTF-8" standalone="no"?>
<!DOCTYPE svg PUBLIC "-//W3C//DTD SVG 1.1//EN"
 "http://www.w3.org/Graphics/SVG/1.1/DTD/svg11.dtd">
<!-- Generated by graphviz version 13.1.2 (20250808.2320)
 -->
<!-- Pages: 1 -->
<svg width="337pt" height="81pt"
 viewBox="0.00 0.00 337.00 81.00" xmlns="http://www.w3.org/2000/svg" xmlns:xlink="http://www.w3.org/1999/xlink">
<g id="graph0" class="graph" transform="scale(1 1) rotate(0) translate(4 77)">
<polygon fill="white" stroke="none" points="-4,4 -4,-77 332.51,-77 332.51,4 -4,4"/>
<!-- # būc&#45;&gt;būcenis___būc -->
<g id="edge1" class="edge">
<title># būc&#45;&gt;būcenis___būc</title>
<path fill="none" stroke="#cccccc" d="M53.91,-26.12C71.83,-31.74 95.77,-39.24 114.76,-45.19"/>
</g>
<!-- # būc&#45;&gt;būcenītis___būc -->
<g id="edge2" class="edge">
<title># būc&#45;&gt;būcenītis___būc</title>
<path fill="none" stroke="#cccccc" d="M53.57,-18C97.74,-18 186.72,-18 240.36,-18"/>
</g>
<!-- būcenis___būc&#45;&gt;būcenītis___būc -->
<g id="edge3" class="edge">
<title>būcenis___būc&#45;&gt;būcenītis___būc</title>
<path fill="none" stroke="green" d="M180.81,-46.04C197.51,-41.47 218.13,-35.83 236.48,-30.81"/>
<polygon fill="green" stroke="green" points="237.38,-34.2 246.1,-28.18 235.53,-27.45 237.38,-34.2"/>
</g>
<!-- # būc -->
<g id="node1" class="node">
<title># būc</title>
<polygon fill="lightblue" stroke="black" stroke-width="0" points="54,-36 0,-36 0,0 54,0 54,-36"/>
<text xml:space="preserve" text-anchor="middle" x="27" y="-12.95" font-family="Times New Roman,serif" font-size="14.00">būc</text>
</g>
<!-- būcenis___būc -->
<g id="node2" class="node">
<title>būcenis___būc</title>
<ellipse fill="white" stroke="black" stroke-width="0" cx="147.07" cy="-55" rx="39.07" ry="18"/>
<text xml:space="preserve" text-anchor="middle" x="147.07" y="-49.95" font-family="Times New Roman,serif" font-size="14.00">būcenis</text>
</g>
<!-- būcenītis___būc -->
<g id="node3" class="node">
<title>būcenītis___būc</title>
<ellipse fill="white" stroke="black" stroke-width="0" cx="284.32" cy="-18" rx="44.19" ry="18"/>
<text xml:space="preserve" text-anchor="middle" x="284.32" y="-12.95" font-family="Times New Roman,serif" font-size="14.00">būcenītis</text>
</g>
</g>
</svg>
