<?xml version="1.0" encoding="UTF-8" standalone="no"?>
<!DOCTYPE svg PUBLIC "-//W3C//DTD SVG 1.1//EN"
 "http://www.w3.org/Graphics/SVG/1.1/DTD/svg11.dtd">
<!-- Generated by graphviz version 13.1.2 (20250808.2320)
 -->
<!-- Pages: 1 -->
<svg width="594pt" height="502pt"
 viewBox="0.00 0.00 594.00 502.00" xmlns="http://www.w3.org/2000/svg" xmlns:xlink="http://www.w3.org/1999/xlink">
<g id="graph0" class="graph" transform="scale(1 1) rotate(0) translate(4 498)">
<polygon fill="white" stroke="none" points="-4,4 -4,-498 589.76,-498 589.76,4 -4,4"/>
<!-- # demp&#45;&gt;antidempinga___demp -->
<g id="edge1" class="edge">
<title># demp&#45;&gt;antidempinga___demp</title>
<path fill="none" stroke="#cccccc" d="M72.19,-241.35C132.93,-277.89 259.28,-353.92 314.3,-387.02"/>
</g>
<!-- # demp&#45;&gt;antidempings___demp -->
<g id="edge2" class="edge">
<title># demp&#45;&gt;antidempings___demp</title>
<path fill="none" stroke="#cccccc" d="M76.66,-241.22C169.98,-290.52 407.68,-416.09 491.38,-460.3"/>
</g>
<!-- # demp&#45;&gt;dempingošana___demp -->
<g id="edge3" class="edge">
<title># demp&#45;&gt;dempingošana___demp</title>
<path fill="none" stroke="#cccccc" d="M76.66,-220.92C159.17,-220.75 354.52,-220.35 456.54,-220.13"/>
</g>
<!-- # demp&#45;&gt;dempingot___demp -->
<g id="edge4" class="edge">
<title># demp&#45;&gt;dempingot___demp</title>
<path fill="none" stroke="#cccccc" d="M76.68,-211.63C133.75,-197.67 240.67,-171.51 299.47,-157.12"/>
</g>
<!-- # demp&#45;&gt;dempingotāja___demp -->
<g id="edge5" class="edge">
<title># demp&#45;&gt;dempingotāja___demp</title>
<path fill="none" stroke="#cccccc" d="M76.66,-213.62C162.96,-197 372.71,-156.59 469.99,-137.85"/>
</g>
<!-- # demp&#45;&gt;dempingotājs___demp -->
<g id="edge6" class="edge">
<title># demp&#45;&gt;dempingotājs___demp</title>
<path fill="none" stroke="#cccccc" d="M76.66,-204.9C168.09,-166.45 398.08,-69.73 486.09,-32.72"/>
</g>
<!-- # demp&#45;&gt;dempings___demp -->
<g id="edge7" class="edge">
<title># demp&#45;&gt;dempings___demp</title>
<path fill="none" stroke="#cccccc" d="M76.62,-240.75C99.87,-253.08 129.25,-268.67 150.21,-279.79"/>
</g>
<!-- antidempinga___demp&#45;&gt;antidempings___demp -->
<g id="edge10" class="edge">
<title>antidempinga___demp&#45;&gt;antidempings___demp</title>
<path fill="none" stroke="green" d="M377.07,-417.42C405.02,-428.87 444.31,-444.96 474.63,-457.38"/>
<polygon fill="green" stroke="green" points="472.97,-460.48 483.55,-461.03 475.63,-454 472.97,-460.48"/>
</g>
<!-- dempingot___demp&#45;&gt;dempingošana___demp -->
<g id="edge11" class="edge">
<title>dempingot___demp&#45;&gt;dempingošana___demp</title>
<path fill="none" stroke="green" d="M374.54,-160.39C402.32,-171.77 442.53,-188.23 473.65,-200.98"/>
<polygon fill="green" stroke="green" points="472.26,-204.19 482.84,-204.74 474.92,-197.71 472.26,-204.19"/>
</g>
<!-- dempingot___demp&#45;&gt;dempingotāja___demp -->
<g id="edge13" class="edge">
<title>dempingot___demp&#45;&gt;dempingotāja___demp</title>
<path fill="none" stroke="green" d="M389.15,-141.96C408.38,-139.91 430.97,-137.5 451.93,-135.27"/>
<polygon fill="green" stroke="green" points="452.29,-138.75 461.86,-134.21 451.55,-131.79 452.29,-138.75"/>
</g>
<!-- dempingot___demp&#45;&gt;dempingotājs___demp -->
<g id="edge14" class="edge">
<title>dempingot___demp&#45;&gt;dempingotājs___demp</title>
<path fill="none" stroke="green" d="M363.71,-131.18C394.86,-108.64 452.21,-67.13 488.13,-41.13"/>
<polygon fill="green" stroke="green" points="489.94,-44.14 495.99,-35.45 485.84,-38.47 489.94,-44.14"/>
</g>
<!-- dempings___demp&#45;&gt;antidempinga___demp -->
<g id="edge9" class="edge">
<title>dempings___demp&#45;&gt;antidempinga___demp</title>
<path fill="none" stroke="orange" d="M201.71,-309.39C229.02,-327.89 275.1,-359.12 306.46,-380.37"/>
<polygon fill="orange" stroke="orange" points="304.19,-383.06 314.43,-385.78 308.12,-377.27 304.19,-383.06"/>
</g>
<!-- dempings___demp&#45;&gt;dempingot___demp -->
<g id="edge12" class="edge">
<title>dempings___demp&#45;&gt;dempingot___demp</title>
<path fill="none" stroke="green" d="M196.83,-277.71C225.22,-251.77 280.82,-200.95 313.71,-170.89"/>
<polygon fill="green" stroke="green" points="315.81,-173.72 320.83,-164.39 311.08,-168.55 315.81,-173.72"/>
</g>
<!-- anti&#45;&gt;antidempinga___demp -->
<g id="edge8" class="edge">
<title>anti&#45;&gt;antidempinga___demp</title>
<path fill="none" stroke="orange" d="M204.85,-434.06C225.44,-429.32 255.07,-422.5 281.33,-416.46"/>
<polygon fill="orange" stroke="orange" points="281.9,-419.92 290.86,-414.27 280.33,-413.1 281.9,-419.92"/>
</g>
<!-- # demp -->
<g id="node1" class="node">
<title># demp</title>
<polygon fill="lightblue" stroke="black" stroke-width="0" points="76.75,-241.5 0,-241.5 0,-200.5 76.75,-200.5 76.75,-241.5"/>
<text xml:space="preserve" text-anchor="middle" x="38.38" y="-224.2" font-family="Times New Roman,serif" font-size="14.00">demp</text>
<text xml:space="preserve" text-anchor="middle" x="38.38" y="-207.7" font-family="Times New Roman,serif" font-size="14.00">(borrowed)</text>
</g>
<!-- antidempinga___demp -->
<g id="node2" class="node">
<title>antidempinga___demp</title>
<ellipse fill="white" stroke="black" stroke-width="0" cx="340.85" cy="-403" rx="61.59" ry="18"/>
<text xml:space="preserve" text-anchor="middle" x="340.85" y="-397.95" font-family="Times New Roman,serif" font-size="14.00">antidempinga</text>
</g>
<!-- antidempings___demp -->
<g id="node3" class="node">
<title>antidempings___demp</title>
<ellipse fill="white" stroke="black" stroke-width="0" cx="521.1" cy="-476" rx="61.08" ry="18"/>
<text xml:space="preserve" text-anchor="middle" x="521.1" y="-470.95" font-family="Times New Roman,serif" font-size="14.00">antidempings</text>
</g>
<!-- dempingošana___demp -->
<g id="node4" class="node">
<title>dempingošana___demp</title>
<ellipse fill="white" stroke="black" stroke-width="0" cx="521.1" cy="-220" rx="64.66" ry="18"/>
<text xml:space="preserve" text-anchor="middle" x="521.1" y="-214.95" font-family="Times New Roman,serif" font-size="14.00">dempingošana</text>
</g>
<!-- dempingot___demp -->
<g id="node5" class="node">
<title>dempingot___demp</title>
<ellipse fill="white" stroke="black" stroke-width="0" cx="340.85" cy="-147" rx="50.84" ry="18"/>
<text xml:space="preserve" text-anchor="middle" x="340.85" y="-141.95" font-family="Times New Roman,serif" font-size="14.00">dempingot</text>
</g>
<!-- dempingotāja___demp -->
<g id="node6" class="node">
<title>dempingotāja___demp</title>
<ellipse fill="white" stroke="black" stroke-width="0" cx="521.1" cy="-128" rx="61.59" ry="18"/>
<text xml:space="preserve" text-anchor="middle" x="521.1" y="-122.95" font-family="Times New Roman,serif" font-size="14.00">dempingotāja</text>
</g>
<!-- dempingotājs___demp -->
<g id="node7" class="node">
<title>dempingotājs___demp</title>
<ellipse fill="white" stroke="black" stroke-width="0" cx="521.1" cy="-18" rx="61.08" ry="18"/>
<text xml:space="preserve" text-anchor="middle" x="521.1" y="-12.95" font-family="Times New Roman,serif" font-size="14.00">dempingotājs</text>
</g>
<!-- dempings___demp -->
<g id="node8" class="node">
<title>dempings___demp</title>
<ellipse fill="white" stroke="black" stroke-width="0" cx="178.01" cy="-294" rx="47.26" ry="18"/>
<text xml:space="preserve" text-anchor="middle" x="178.01" y="-288.95" font-family="Times New Roman,serif" font-size="14.00">dempings</text>
</g>
<!-- anti -->
<g id="node9" class="node">
<title>anti</title>
<polygon fill="lightgray" stroke="black" stroke-width="0" points="205.01,-458 151.01,-458 151.01,-422 205.01,-422 205.01,-458"/>
<text xml:space="preserve" text-anchor="middle" x="178.01" y="-434.95" font-family="Times New Roman,serif" font-size="14.00">anti</text>
</g>
</g>
</svg>
