<?xml version="1.0" encoding="UTF-8" standalone="no"?>
<!DOCTYPE svg PUBLIC "-//W3C//DTD SVG 1.1//EN"
 "http://www.w3.org/Graphics/SVG/1.1/DTD/svg11.dtd">
<!-- Generated by graphviz version 13.1.2 (20250808.2320)
 -->
<!-- Pages: 1 -->
<svg width="317pt" height="153pt"
 viewBox="0.00 0.00 317.00 153.00" xmlns="http://www.w3.org/2000/svg" xmlns:xlink="http://www.w3.org/1999/xlink">
<g id="graph0" class="graph" transform="scale(1 1) rotate(0) translate(4 149)">
<polygon fill="white" stroke="none" points="-4,4 -4,-149 313.06,-149 313.06,4 -4,4"/>
<!-- # duc&#45;&gt;ducīgs___duc -->
<g id="edge1" class="edge">
<title># duc&#45;&gt;ducīgs___duc</title>
<path fill="none" stroke="#cccccc" d="M53.86,-71.34C73.96,-84.03 101.51,-101.44 120.42,-113.38"/>
</g>
<!-- # duc&#45;&gt;ducka___duc -->
<g id="edge2" class="edge">
<title># duc&#45;&gt;ducka___duc</title>
<path fill="none" stroke="#cccccc" d="M53.86,-55C70.54,-55 92.36,-55 110.11,-55"/>
</g>
<!-- # duc&#45;&gt;Duckas___duc -->
<g id="edge3" class="edge">
<title># duc&#45;&gt;Duckas___duc</title>
<path fill="none" stroke="#cccccc" d="M53.99,-50.9C97.82,-44.24 184.55,-31.06 233.9,-23.56"/>
</g>
<!-- ducka___duc&#45;&gt;Duckas___duc -->
<g id="edge4" class="edge">
<title>ducka___duc&#45;&gt;Duckas___duc</title>
<path fill="none" stroke="purple" d="M172.14,-46.7C188.31,-41.93 208.92,-35.86 227.02,-30.52"/>
<polygon fill="purple" stroke="purple" points="227.84,-33.93 236.44,-27.74 225.86,-27.21 227.84,-33.93"/>
</g>
<!-- # duc -->
<g id="node1" class="node">
<title># duc</title>
<polygon fill="lightblue" stroke="black" stroke-width="0" points="54,-73 0,-73 0,-37 54,-37 54,-73"/>
<text xml:space="preserve" text-anchor="middle" x="27" y="-49.95" font-family="Times New Roman,serif" font-size="14.00">duc</text>
</g>
<!-- ducīgs___duc -->
<g id="node2" class="node">
<title>ducīgs___duc</title>
<ellipse fill="white" stroke="black" stroke-width="0" cx="142.97" cy="-127" rx="34.97" ry="18"/>
<text xml:space="preserve" text-anchor="middle" x="142.97" y="-121.95" font-family="Times New Roman,serif" font-size="14.00">ducīgs</text>
</g>
<!-- ducka___duc -->
<g id="node3" class="node">
<title>ducka___duc</title>
<ellipse fill="white" stroke="black" stroke-width="0" cx="142.97" cy="-55" rx="32.93" ry="18"/>
<text xml:space="preserve" text-anchor="middle" x="142.97" y="-49.95" font-family="Times New Roman,serif" font-size="14.00">ducka</text>
</g>
<!-- Duckas___duc -->
<g id="node4" class="node">
<title>Duckas___duc</title>
<ellipse fill="white" stroke="black" stroke-width="0" cx="270.5" cy="-18" rx="38.56" ry="18"/>
<text xml:space="preserve" text-anchor="middle" x="270.5" y="-12.95" font-family="Times New Roman,serif" font-size="14.00">Duckas</text>
</g>
</g>
</svg>
