<?xml version="1.0" encoding="UTF-8" standalone="no"?>
<!DOCTYPE svg PUBLIC "-//W3C//DTD SVG 1.1//EN"
 "http://www.w3.org/Graphics/SVG/1.1/DTD/svg11.dtd">
<!-- Generated by graphviz version 13.1.2 (20250808.2320)
 -->
<!-- Pages: 1 -->
<svg width="213pt" height="188pt"
 viewBox="0.00 0.00 213.00 188.00" xmlns="http://www.w3.org/2000/svg" xmlns:xlink="http://www.w3.org/1999/xlink">
<g id="graph0" class="graph" transform="scale(1 1) rotate(0) translate(4 184)">
<polygon fill="white" stroke="none" points="-4,4 -4,-184 208.79,-184 208.79,4 -4,4"/>
<!-- # edip, oidip&#45;&gt;edipāls___edip__oidip -->
<g id="edge1" class="edge">
<title># edip, oidip&#45;&gt;edipāls___edip__oidip</title>
<path fill="none" stroke="#cccccc" d="M75.54,-110.44C97.32,-122.75 124.4,-138.06 143.39,-148.78"/>
</g>
<!-- # edip, oidip&#45;&gt;Edips___edip__oidip -->
<g id="edge2" class="edge">
<title># edip, oidip&#45;&gt;Edips___edip__oidip</title>
<path fill="none" stroke="#cccccc" d="M76.57,-90C95.51,-90 118.27,-90 136.19,-90"/>
</g>
<!-- # edip, oidip&#45;&gt;Oidips___edip__oidip -->
<g id="edge3" class="edge">
<title># edip, oidip&#45;&gt;Oidips___edip__oidip</title>
<path fill="none" stroke="#cccccc" d="M75.54,-69.56C97.46,-57.17 124.77,-41.74 143.77,-31"/>
</g>
<!-- # edip, oidip -->
<g id="node1" class="node">
<title># edip, oidip</title>
<polygon fill="lightblue" stroke="black" stroke-width="0" points="76.75,-110.5 0,-110.5 0,-69.5 76.75,-69.5 76.75,-110.5"/>
<text xml:space="preserve" text-anchor="middle" x="38.38" y="-93.2" font-family="Times New Roman,serif" font-size="14.00">edip, oidip</text>
<text xml:space="preserve" text-anchor="middle" x="38.38" y="-76.7" font-family="Times New Roman,serif" font-size="14.00">(borrowed)</text>
</g>
<!-- edipāls___edip__oidip -->
<g id="node2" class="node">
<title>edipāls___edip__oidip</title>
<ellipse fill="white" stroke="black" stroke-width="0" cx="167.77" cy="-162" rx="37.02" ry="18"/>
<text xml:space="preserve" text-anchor="middle" x="167.77" y="-156.95" font-family="Times New Roman,serif" font-size="14.00">edipāls</text>
</g>
<!-- Edips___edip__oidip -->
<g id="node3" class="node">
<title>Edips___edip__oidip</title>
<ellipse fill="white" stroke="black" stroke-width="0" cx="167.77" cy="-90" rx="31.9" ry="18"/>
<text xml:space="preserve" text-anchor="middle" x="167.77" y="-84.95" font-family="Times New Roman,serif" font-size="14.00">Edips</text>
</g>
<!-- Oidips___edip__oidip -->
<g id="node4" class="node">
<title>Oidips___edip__oidip</title>
<ellipse fill="white" stroke="black" stroke-width="0" cx="167.77" cy="-18" rx="35.49" ry="18"/>
<text xml:space="preserve" text-anchor="middle" x="167.77" y="-12.95" font-family="Times New Roman,serif" font-size="14.00">Oidips</text>
</g>
</g>
</svg>
