<?xml version="1.0" encoding="UTF-8" standalone="no"?>
<!DOCTYPE svg PUBLIC "-//W3C//DTD SVG 1.1//EN"
 "http://www.w3.org/Graphics/SVG/1.1/DTD/svg11.dtd">
<!-- Generated by graphviz version 13.1.2 (20250808.2320)
 -->
<!-- Pages: 1 -->
<svg width="362pt" height="406pt"
 viewBox="0.00 0.00 362.00 406.00" xmlns="http://www.w3.org/2000/svg" xmlns:xlink="http://www.w3.org/1999/xlink">
<g id="graph0" class="graph" transform="scale(1 1) rotate(0) translate(4 402)">
<polygon fill="white" stroke="none" points="-4,4 -4,-402 358.33,-402 358.33,4 -4,4"/>
<!-- # eifel, eifeļ&#45;&gt;Eifela___eifel__eifeļ -->
<g id="edge1" class="edge">
<title># eifel, eifeļ&#45;&gt;Eifela___eifel__eifeļ</title>
<path fill="none" stroke="#cccccc" d="M57.07,-256.33C82.31,-285.32 128.12,-337.95 150.98,-364.21"/>
</g>
<!-- # eifel, eifeļ&#45;&gt;Eifelis___eifel__eifeļ -->
<g id="edge2" class="edge">
<title># eifel, eifeļ&#45;&gt;Eifelis___eifel__eifeļ</title>
<path fill="none" stroke="#cccccc" d="M74.96,-256.44C96.53,-268.83 123.4,-284.26 142.09,-295"/>
</g>
<!-- # eifel, eifeļ&#45;&gt;Eifels___eifel__eifeļ -->
<g id="edge3" class="edge">
<title># eifel, eifeļ&#45;&gt;Eifels___eifel__eifeļ</title>
<path fill="none" stroke="#cccccc" d="M76.64,-236C94.83,-236 116.45,-236 133.72,-236"/>
</g>
<!-- # eifel, eifeļ&#45;&gt;eifels___eifel__eifeļ -->
<g id="edge4" class="edge">
<title># eifel, eifeļ&#45;&gt;eifels___eifel__eifeļ</title>
<path fill="none" stroke="#cccccc" d="M74.96,-215.56C97.11,-202.84 124.85,-186.91 143.58,-176.15"/>
</g>
<!-- # eifel, eifeļ&#45;&gt;Eifeļtornis___eifel__eifeļ -->
<g id="edge5" class="edge">
<title># eifel, eifeļ&#45;&gt;Eifeļtornis___eifel__eifeļ</title>
<path fill="none" stroke="#cccccc" d="M75.94,-215.53C130.25,-185.95 229.4,-131.92 277.25,-105.85"/>
</g>
<!-- Eifelis___eifel__eifeļ&#45;&gt;Eifeļtornis___eifel__eifeļ -->
<g id="edge6" class="edge">
<title>Eifelis___eifel__eifeļ&#45;&gt;Eifeļtornis___eifel__eifeļ</title>
<path fill="none" stroke="blue" d="M177.23,-291.33C200.79,-253.96 257.99,-163.22 286.61,-117.81"/>
<polygon fill="blue" stroke="blue" points="289.41,-119.93 291.78,-109.61 283.49,-116.2 289.41,-119.93"/>
</g>
<!-- tornis&#45;&gt;Eifeļtornis___eifel__eifeļ -->
<g id="edge7" class="edge">
<title>tornis&#45;&gt;Eifeļtornis___eifel__eifeļ</title>
<path fill="none" stroke="blue" d="M189.31,-30.05C210.16,-41.18 241.52,-57.92 266.1,-71.04"/>
<polygon fill="blue" stroke="blue" points="264.37,-74.08 274.84,-75.7 267.67,-67.9 264.37,-74.08"/>
</g>
<!-- # eifel, eifeļ -->
<g id="node1" class="node">
<title># eifel, eifeļ</title>
<polygon fill="lightblue" stroke="black" stroke-width="0" points="76.75,-256.5 0,-256.5 0,-215.5 76.75,-215.5 76.75,-256.5"/>
<text xml:space="preserve" text-anchor="middle" x="38.38" y="-239.2" font-family="Times New Roman,serif" font-size="14.00">eifel, eifeļ</text>
<text xml:space="preserve" text-anchor="middle" x="38.38" y="-222.7" font-family="Times New Roman,serif" font-size="14.00">(borrowed)</text>
</g>
<!-- Eifela___eifel__eifeļ -->
<g id="node2" class="node">
<title>Eifela___eifel__eifeļ</title>
<ellipse fill="white" stroke="black" stroke-width="0" cx="165.72" cy="-380" rx="32.93" ry="18"/>
<text xml:space="preserve" text-anchor="middle" x="165.72" y="-374.95" font-family="Times New Roman,serif" font-size="14.00">Eifela</text>
</g>
<!-- Eifelis___eifel__eifeļ -->
<g id="node3" class="node">
<title>Eifelis___eifel__eifeļ</title>
<ellipse fill="white" stroke="black" stroke-width="0" cx="165.72" cy="-308" rx="34.97" ry="18"/>
<text xml:space="preserve" text-anchor="middle" x="165.72" y="-302.95" font-family="Times New Roman,serif" font-size="14.00">Eifelis</text>
</g>
<!-- Eifels___eifel__eifeļ -->
<g id="node4" class="node">
<title>Eifels___eifel__eifeļ</title>
<ellipse fill="white" stroke="black" stroke-width="0" cx="165.72" cy="-236" rx="32.41" ry="18"/>
<text xml:space="preserve" text-anchor="middle" x="165.72" y="-230.95" font-family="Times New Roman,serif" font-size="14.00">Eifels</text>
</g>
<!-- eifels___eifel__eifeļ -->
<g id="node5" class="node">
<title>eifels___eifel__eifeļ</title>
<ellipse fill="white" stroke="black" stroke-width="0" cx="165.72" cy="-164" rx="30.88" ry="18"/>
<text xml:space="preserve" text-anchor="middle" x="165.72" y="-158.95" font-family="Times New Roman,serif" font-size="14.00">eifels</text>
</g>
<!-- Eifeļtornis___eifel__eifeļ -->
<g id="node6" class="node">
<title>Eifeļtornis___eifel__eifeļ</title>
<ellipse fill="white" stroke="black" stroke-width="0" cx="304.51" cy="-91" rx="49.82" ry="18"/>
<text xml:space="preserve" text-anchor="middle" x="304.51" y="-85.95" font-family="Times New Roman,serif" font-size="14.00">Eifeļtornis</text>
</g>
<!-- tornis -->
<g id="node7" class="node">
<title>tornis</title>
<ellipse fill="white" stroke="black" stroke-width="0" cx="165.72" cy="-18" rx="31.9" ry="18"/>
<text xml:space="preserve" text-anchor="middle" x="165.72" y="-12.95" font-family="Times New Roman,serif" font-size="14.00" fill="gray">tornis</text>
</g>
</g>
</svg>
