<?xml version="1.0" encoding="UTF-8" standalone="no"?>
<!DOCTYPE svg PUBLIC "-//W3C//DTD SVG 1.1//EN"
 "http://www.w3.org/Graphics/SVG/1.1/DTD/svg11.dtd">
<!-- Generated by graphviz version 13.1.2 (20250808.2320)
 -->
<!-- Pages: 1 -->
<svg width="249pt" height="260pt"
 viewBox="0.00 0.00 249.00 260.00" xmlns="http://www.w3.org/2000/svg" xmlns:xlink="http://www.w3.org/1999/xlink">
<g id="graph0" class="graph" transform="scale(1 1) rotate(0) translate(4 256)">
<polygon fill="white" stroke="none" points="-4,4 -4,-256 244.62,-256 244.62,4 -4,4"/>
<!-- # eind, end&#45;&gt;Eindhovena___eind__end -->
<g id="edge1" class="edge">
<title># eind, end&#45;&gt;Eindhovena___eind__end</title>
<path fill="none" stroke="#cccccc" d="M66.71,-146.31C94.49,-166.97 137.01,-198.57 162.7,-217.66"/>
</g>
<!-- # eind, end&#45;&gt;Īstenda___eind__end -->
<g id="edge2" class="edge">
<title># eind, end&#45;&gt;Īstenda___eind__end</title>
<path fill="none" stroke="#cccccc" d="M76.42,-135.18C99.79,-140.97 129.7,-148.38 152.16,-153.94"/>
</g>
<!-- # eind, end&#45;&gt;Vestenda___eind__end -->
<g id="edge3" class="edge">
<title># eind, end&#45;&gt;Vestenda___eind__end</title>
<path fill="none" stroke="#cccccc" d="M76.42,-116.82C98.28,-111.41 125.86,-104.57 147.71,-99.16"/>
</g>
<!-- # eind, end&#45;&gt;ends___eind__end -->
<g id="edge4" class="edge">
<title># eind, end&#45;&gt;ends___eind__end</title>
<path fill="none" stroke="#cccccc" d="M66.71,-105.69C96.14,-83.81 142.09,-49.66 167.07,-31.09"/>
</g>
<!-- # eind, end -->
<g id="node1" class="node">
<title># eind, end</title>
<polygon fill="lightblue" stroke="black" stroke-width="0" points="76.75,-146.5 0,-146.5 0,-105.5 76.75,-105.5 76.75,-146.5"/>
<text xml:space="preserve" text-anchor="middle" x="38.38" y="-129.2" font-family="Times New Roman,serif" font-size="14.00">eind, end</text>
<text xml:space="preserve" text-anchor="middle" x="38.38" y="-112.7" font-family="Times New Roman,serif" font-size="14.00">(borrowed)</text>
</g>
<!-- Eindhovena___eind__end -->
<g id="node2" class="node">
<title>Eindhovena___eind__end</title>
<ellipse fill="white" stroke="black" stroke-width="0" cx="185.68" cy="-234" rx="54.93" ry="18"/>
<text xml:space="preserve" text-anchor="middle" x="185.68" y="-228.95" font-family="Times New Roman,serif" font-size="14.00">Eindhovena</text>
</g>
<!-- Īstenda___eind__end -->
<g id="node3" class="node">
<title>Īstenda___eind__end</title>
<ellipse fill="white" stroke="black" stroke-width="0" cx="185.68" cy="-162" rx="37.53" ry="18"/>
<text xml:space="preserve" text-anchor="middle" x="185.68" y="-156.95" font-family="Times New Roman,serif" font-size="14.00">Īstenda</text>
</g>
<!-- Vestenda___eind__end -->
<g id="node4" class="node">
<title>Vestenda___eind__end</title>
<ellipse fill="white" stroke="black" stroke-width="0" cx="185.68" cy="-90" rx="44.19" ry="18"/>
<text xml:space="preserve" text-anchor="middle" x="185.68" y="-84.95" font-family="Times New Roman,serif" font-size="14.00">Vestenda</text>
</g>
<!-- ends___eind__end -->
<g id="node5" class="node">
<title>ends___eind__end</title>
<ellipse fill="white" stroke="black" stroke-width="0" cx="185.68" cy="-18" rx="27.81" ry="18"/>
<text xml:space="preserve" text-anchor="middle" x="185.68" y="-12.95" font-family="Times New Roman,serif" font-size="14.00">ends</text>
</g>
</g>
</svg>
