<?xml version="1.0" encoding="UTF-8" standalone="no"?>
<!DOCTYPE svg PUBLIC "-//W3C//DTD SVG 1.1//EN"
 "http://www.w3.org/Graphics/SVG/1.1/DTD/svg11.dtd">
<!-- Generated by graphviz version 13.1.2 (20250808.2320)
 -->
<!-- Pages: 1 -->
<svg width="363pt" height="410pt"
 viewBox="0.00 0.00 363.00 410.00" xmlns="http://www.w3.org/2000/svg" xmlns:xlink="http://www.w3.org/1999/xlink">
<g id="graph0" class="graph" transform="scale(1 1) rotate(0) translate(4 406)">
<polygon fill="white" stroke="none" points="-4,4 -4,-406 359.35,-406 359.35,4 -4,4"/>
<!-- # gar&#45;&gt;garaža___gar -->
<g id="edge1" class="edge">
<title># gar&#45;&gt;garaža___gar</title>
<path fill="none" stroke="#cccccc" d="M56.8,-257.44C81.96,-286.94 127.95,-340.88 150.91,-367.8"/>
</g>
<!-- # gar&#45;&gt;garažnieks___gar -->
<g id="edge2" class="edge">
<title># gar&#45;&gt;garažnieks___gar</title>
<path fill="none" stroke="#cccccc" d="M76.58,-252.76C129.14,-274.44 222.86,-313.11 272.34,-333.52"/>
</g>
<!-- # gar&#45;&gt;garāža___gar -->
<g id="edge3" class="edge">
<title># gar&#45;&gt;garāža___gar</title>
<path fill="none" stroke="#cccccc" d="M74.29,-216.67C96.02,-204.01 123.34,-188.1 142.23,-177.1"/>
</g>
<!-- # gar&#45;&gt;garāžnieks___gar -->
<g id="edge4" class="edge">
<title># gar&#45;&gt;garāžnieks___gar</title>
<path fill="none" stroke="#cccccc" d="M76.58,-231.84C124.53,-225.37 206.74,-214.27 258.37,-207.3"/>
</g>
<!-- # gar&#45;&gt;garāžroks___gar -->
<g id="edge5" class="edge">
<title># gar&#45;&gt;garāžroks___gar</title>
<path fill="none" stroke="#cccccc" d="M75.73,-216.55C130.34,-186.65 230.65,-131.72 278.4,-105.58"/>
</g>
<!-- garaža___gar&#45;&gt;garažnieks___gar -->
<g id="edge6" class="edge">
<title>garaža___gar&#45;&gt;garažnieks___gar</title>
<path fill="none" stroke="green" d="M196.85,-375.88C213.48,-371.4 234.57,-365.72 253.63,-360.58"/>
<polygon fill="green" stroke="green" points="254.37,-364.01 263.11,-358.03 252.55,-357.25 254.37,-364.01"/>
</g>
<!-- garāža___gar&#45;&gt;garāžnieks___gar -->
<g id="edge7" class="edge">
<title>garāža___gar&#45;&gt;garāžnieks___gar</title>
<path fill="none" stroke="green" d="M196.85,-172.12C213.48,-176.6 234.57,-182.28 253.63,-187.42"/>
<polygon fill="green" stroke="green" points="252.55,-190.75 263.11,-189.97 254.37,-183.99 252.55,-190.75"/>
</g>
<!-- garāža___gar&#45;&gt;garāžroks___gar -->
<g id="edge8" class="edge">
<title>garāža___gar&#45;&gt;garāžroks___gar</title>
<path fill="none" stroke="blue" d="M190.33,-151.45C211.39,-140.25 242.59,-123.66 266.98,-110.7"/>
<polygon fill="blue" stroke="blue" points="268.44,-113.88 275.63,-106.1 265.16,-107.7 268.44,-113.88"/>
</g>
<!-- roks&#45;&gt;garāžroks___gar -->
<g id="edge9" class="edge">
<title>roks&#45;&gt;garāžroks___gar</title>
<path fill="none" stroke="blue" d="M186.98,-28.77C207.96,-39.93 241.21,-57.6 266.92,-71.27"/>
<polygon fill="blue" stroke="blue" points="265.25,-74.35 275.73,-75.95 268.54,-68.17 265.25,-74.35"/>
</g>
<!-- # gar -->
<g id="node1" class="node">
<title># gar</title>
<polygon fill="lightblue" stroke="black" stroke-width="0" points="76.75,-257.5 0,-257.5 0,-216.5 76.75,-216.5 76.75,-257.5"/>
<text xml:space="preserve" text-anchor="middle" x="38.38" y="-240.2" font-family="Times New Roman,serif" font-size="14.00">gar</text>
<text xml:space="preserve" text-anchor="middle" x="38.38" y="-223.7" font-family="Times New Roman,serif" font-size="14.00">(borrowed)</text>
</g>
<!-- garaža___gar -->
<g id="node2" class="node">
<title>garaža___gar</title>
<ellipse fill="white" stroke="black" stroke-width="0" cx="165.72" cy="-384" rx="34.97" ry="18"/>
<text xml:space="preserve" text-anchor="middle" x="165.72" y="-378.95" font-family="Times New Roman,serif" font-size="14.00">garaža</text>
</g>
<!-- garažnieks___gar -->
<g id="node3" class="node">
<title>garažnieks___gar</title>
<ellipse fill="white" stroke="black" stroke-width="0" cx="305.02" cy="-347" rx="50.33" ry="18"/>
<text xml:space="preserve" text-anchor="middle" x="305.02" y="-341.95" font-family="Times New Roman,serif" font-size="14.00">garažnieks</text>
</g>
<!-- garāža___gar -->
<g id="node4" class="node">
<title>garāža___gar</title>
<ellipse fill="white" stroke="black" stroke-width="0" cx="165.72" cy="-164" rx="34.97" ry="18"/>
<text xml:space="preserve" text-anchor="middle" x="165.72" y="-158.95" font-family="Times New Roman,serif" font-size="14.00">garāža</text>
</g>
<!-- garāžnieks___gar -->
<g id="node5" class="node">
<title>garāžnieks___gar</title>
<ellipse fill="white" stroke="black" stroke-width="0" cx="305.02" cy="-201" rx="50.33" ry="18"/>
<text xml:space="preserve" text-anchor="middle" x="305.02" y="-195.95" font-family="Times New Roman,serif" font-size="14.00">garāžnieks</text>
</g>
<!-- garāžroks___gar -->
<g id="node6" class="node">
<title>garāžroks___gar</title>
<ellipse fill="white" stroke="black" stroke-width="0" cx="305.02" cy="-91" rx="46.75" ry="18"/>
<text xml:space="preserve" text-anchor="middle" x="305.02" y="-85.95" font-family="Times New Roman,serif" font-size="14.00">garāžroks</text>
</g>
<!-- roks -->
<g id="node7" class="node">
<title>roks</title>
<ellipse fill="white" stroke="black" stroke-width="0" cx="165.72" cy="-18" rx="27" ry="18"/>
<text xml:space="preserve" text-anchor="middle" x="165.72" y="-12.95" font-family="Times New Roman,serif" font-size="14.00" fill="gray">roks</text>
</g>
</g>
</svg>
